<mxfile host="app.diagrams.net" modified="2024-05-27T15:45:42.422Z" agent="Mozilla/5.0 (Windows NT 10.0; Win64; x64) AppleWebKit/537.36 (KHTML, like Gecko) Chrome/125.0.0.0 Safari/537.36" etag="g7hjWBamxO_XCjjQdb0q" version="24.4.8" type="github">
  <diagram name="Page-1" id="ujIteeR5TrWr0P5d-Lq7">
    <mxGraphModel dx="3393" dy="1404" grid="0" gridSize="10" guides="1" tooltips="1" connect="1" arrows="1" fold="1" page="0" pageScale="1" pageWidth="827" pageHeight="1169" math="0" shadow="0">
      <root>
        <mxCell id="0" />
        <mxCell id="1" parent="0" />
        <mxCell id="S9fTLESq3XJ_JQfCiKpW-1" value="&lt;p style=&quot;margin:0px;margin-top:4px;text-align:center;&quot;&gt;&amp;lt;&amp;lt;requirement&amp;gt;&amp;gt;&lt;br&gt;&lt;b&gt;Display list of doctors&lt;/b&gt;&lt;/p&gt;&lt;hr&gt;&lt;p&gt;&lt;/p&gt;&lt;p style=&quot;margin:0px;margin-left:8px;text-align:left;&quot;&gt;&lt;b&gt;Text&amp;nbsp;&lt;/b&gt;= &quot;The system should dipslay the listo of doctors&quot;&lt;br&gt;&lt;b&gt;Id&amp;nbsp; &amp;nbsp; &amp;nbsp;&lt;/b&gt;= &quot;1.0&quot;&lt;/p&gt;" style="shape=rect;overflow=fill;html=1;whiteSpace=wrap;align=center;" parent="1" vertex="1">
          <mxGeometry x="-356.0000000000001" y="-69" width="200" height="100" as="geometry" />
        </mxCell>
        <mxCell id="S9fTLESq3XJ_JQfCiKpW-2" value="&lt;p style=&quot;margin:0px;margin-top:4px;text-align:center;&quot;&gt;&amp;lt;&amp;lt;requirement&amp;gt;&amp;gt;&lt;br&gt;&lt;b&gt;List of doctors requested&lt;/b&gt;&lt;/p&gt;&lt;hr&gt;&lt;p&gt;&lt;/p&gt;&lt;p style=&quot;margin:0px;margin-left:8px;text-align:left;&quot;&gt;&lt;b&gt;Text&amp;nbsp;&lt;/b&gt;= &quot;User should request the list of doctors&lt;span style=&quot;background-color: initial;&quot;&gt;&quot;&lt;/span&gt;&lt;/p&gt;&lt;p style=&quot;margin:0px;margin-left:8px;text-align:left;&quot;&gt;&lt;b&gt;Id&amp;nbsp; &amp;nbsp; &amp;nbsp;&lt;/b&gt;= &quot;1.0&quot;&lt;/p&gt;" style="shape=rect;overflow=fill;html=1;whiteSpace=wrap;align=center;" parent="1" vertex="1">
          <mxGeometry x="-1209" y="155" width="200" height="100" as="geometry" />
        </mxCell>
        <mxCell id="S9fTLESq3XJ_JQfCiKpW-7" value="&lt;p style=&quot;margin:0px;margin-top:4px;text-align:center;&quot;&gt;&amp;lt;&amp;lt;requirement&amp;gt;&amp;gt;&lt;br&gt;&lt;b&gt;Doctors information retrieved&lt;/b&gt;&lt;/p&gt;&lt;hr&gt;&lt;p&gt;&lt;/p&gt;&lt;p style=&quot;margin:0px;margin-left:8px;text-align:left;&quot;&gt;&lt;b&gt;Text&amp;nbsp;&lt;/b&gt;= &quot;The system should retrieve doctors information&lt;span style=&quot;background-color: initial;&quot;&gt;&quot;&lt;/span&gt;&lt;/p&gt;&lt;p style=&quot;margin:0px;margin-left:8px;text-align:left;&quot;&gt;&lt;b&gt;Id&amp;nbsp; &amp;nbsp; &amp;nbsp;&lt;/b&gt;= &quot;1.0&quot;&lt;/p&gt;" style="shape=rect;overflow=fill;html=1;whiteSpace=wrap;align=center;" parent="1" vertex="1">
          <mxGeometry x="-989.0000000000001" y="155" width="200" height="100" as="geometry" />
        </mxCell>
        <mxCell id="S9fTLESq3XJ_JQfCiKpW-8" value="&amp;lt;&amp;lt; &lt;b&gt;Block &lt;/b&gt;&amp;gt;&amp;gt;&lt;div&gt;&lt;br&gt;&lt;b&gt;Interface Controller&lt;/b&gt;&lt;/div&gt;" style="shape=rect;html=1;whiteSpace=wrap;align=center;verticalAlign=top;fillColor=#FFF2CC;" parent="1" vertex="1">
          <mxGeometry x="1320" y="360" width="120" height="60" as="geometry" />
        </mxCell>
        <mxCell id="S9fTLESq3XJ_JQfCiKpW-12" value="&lt;p style=&quot;margin:0px;margin-top:4px;text-align:center;&quot;&gt;&amp;lt;&amp;lt;requirement&amp;gt;&amp;gt;&lt;br&gt;&lt;b&gt;Doctors displayed&lt;/b&gt;&lt;/p&gt;&lt;hr&gt;&lt;p&gt;&lt;/p&gt;&lt;p style=&quot;margin:0px;margin-left:8px;text-align:left;&quot;&gt;&lt;b&gt;Text&amp;nbsp;&lt;/b&gt;= &quot;The system should display doctor&lt;span style=&quot;background-color: initial;&quot;&gt;&quot;&lt;/span&gt;&lt;/p&gt;&lt;p style=&quot;margin:0px;margin-left:8px;text-align:left;&quot;&gt;&lt;b&gt;Id&amp;nbsp; &amp;nbsp; &amp;nbsp;&lt;/b&gt;= &quot;1.0&quot;&lt;/p&gt;" style="shape=rect;overflow=fill;html=1;whiteSpace=wrap;align=center;" parent="1" vertex="1">
          <mxGeometry x="-745.0000000000001" y="155" width="200" height="100" as="geometry" />
        </mxCell>
        <mxCell id="S9fTLESq3XJ_JQfCiKpW-14" value="&lt;p style=&quot;margin:0px;margin-top:4px;text-align:center;&quot;&gt;&amp;lt;&amp;lt;requirement&amp;gt;&amp;gt;&lt;br&gt;&lt;b&gt;Display doctors based on filters&lt;/b&gt;&lt;/p&gt;&lt;hr&gt;&lt;p&gt;&lt;/p&gt;&lt;p style=&quot;margin:0px;margin-left:8px;text-align:left;&quot;&gt;&lt;b&gt;Text&amp;nbsp;&lt;/b&gt;= &quot;The system should retrieve doctors information&lt;span style=&quot;background-color: initial;&quot;&gt;&quot;&lt;/span&gt;&lt;/p&gt;&lt;p style=&quot;margin:0px;margin-left:8px;text-align:left;&quot;&gt;&lt;b&gt;Id&amp;nbsp; &amp;nbsp; &amp;nbsp;&lt;/b&gt;= &quot;1.0&quot;&lt;/p&gt;" style="shape=rect;overflow=fill;html=1;whiteSpace=wrap;align=center;" parent="1" vertex="1">
          <mxGeometry x="763.9999999999999" y="155" width="200" height="100" as="geometry" />
        </mxCell>
        <mxCell id="S9fTLESq3XJ_JQfCiKpW-16" value="&lt;p style=&quot;margin:0px;margin-top:4px;text-align:center;&quot;&gt;&amp;lt;&amp;lt;requirement&amp;gt;&amp;gt;&lt;br&gt;&lt;b&gt;Filters provided&lt;/b&gt;&lt;/p&gt;&lt;hr&gt;&lt;p&gt;&lt;/p&gt;&lt;p style=&quot;margin:0px;margin-left:8px;text-align:left;&quot;&gt;&lt;b&gt;Text&amp;nbsp;&lt;/b&gt;= &quot;The system should provide the filters to chose from&quot;&lt;br&gt;&lt;b&gt;Id&amp;nbsp; &amp;nbsp; &amp;nbsp;&lt;/b&gt;= &quot;1.0&quot;&lt;/p&gt;" style="shape=rect;overflow=fill;html=1;whiteSpace=wrap;align=center;" parent="1" vertex="1">
          <mxGeometry x="547.9999999999999" y="340" width="200" height="100" as="geometry" />
        </mxCell>
        <mxCell id="S9fTLESq3XJ_JQfCiKpW-17" value="&lt;p style=&quot;margin:0px;margin-top:4px;text-align:center;&quot;&gt;&amp;lt;&amp;lt;requirement&amp;gt;&amp;gt;&lt;br&gt;&lt;b&gt;Filters applied&lt;/b&gt;&lt;/p&gt;&lt;hr&gt;&lt;p&gt;&lt;/p&gt;&lt;p style=&quot;margin:0px;margin-left:8px;text-align:left;&quot;&gt;&lt;b&gt;Text&amp;nbsp;&lt;/b&gt;= &quot;Thes system should apply filters on doctors list&quot;&lt;br&gt;&lt;b&gt;Id&amp;nbsp; &amp;nbsp; &amp;nbsp;&lt;/b&gt;= &quot;1.0&quot;&lt;/p&gt;" style="shape=rect;overflow=fill;html=1;whiteSpace=wrap;align=center;" parent="1" vertex="1">
          <mxGeometry x="763.9999999999999" y="340" width="200" height="100" as="geometry" />
        </mxCell>
        <mxCell id="S9fTLESq3XJ_JQfCiKpW-20" value="&lt;p style=&quot;margin:0px;margin-top:4px;text-align:center;&quot;&gt;&amp;lt;&amp;lt;requirement&amp;gt;&amp;gt;&lt;br&gt;&lt;b&gt;Filtered doctors displayed&lt;/b&gt;&lt;/p&gt;&lt;hr&gt;&lt;p&gt;&lt;/p&gt;&lt;p style=&quot;margin:0px;margin-left:8px;text-align:left;&quot;&gt;&lt;b&gt;Text&amp;nbsp;&lt;/b&gt;= &quot;The system should display filtered list of doctors&quot;&lt;br&gt;&lt;b&gt;Id&amp;nbsp; &amp;nbsp; &amp;nbsp;&lt;/b&gt;= &quot;1.0&quot;&lt;/p&gt;" style="shape=rect;overflow=fill;html=1;whiteSpace=wrap;align=center;" parent="1" vertex="1">
          <mxGeometry x="984" y="340" width="200" height="100" as="geometry" />
        </mxCell>
        <mxCell id="S9fTLESq3XJ_JQfCiKpW-28" value="&lt;span style=&quot;background-color: initial;&quot;&gt;&lt;b&gt;&amp;lt;&amp;lt; Problem &amp;gt;&amp;gt;&lt;/b&gt;&lt;/span&gt;&lt;div&gt;&lt;div style=&quot;font-weight: bold; text-align: left;&quot;&gt;&lt;br&gt;&lt;/div&gt;&lt;div style=&quot;&quot;&gt;Data taking too long to render because of DB query processing time&lt;/div&gt;&lt;/div&gt;" style="shape=note;size=15;align=center;spacingLeft=0;html=1;whiteSpace=wrap;verticalAlign=top;strokeWidth=2;" parent="1" vertex="1">
          <mxGeometry x="-836" y="327" width="173" height="84" as="geometry" />
        </mxCell>
        <mxCell id="S9fTLESq3XJ_JQfCiKpW-29" style="rounded=0;orthogonalLoop=1;jettySize=auto;html=1;endArrow=none;endFill=0;strokeWidth=2;dashed=1;" parent="1" source="S9fTLESq3XJ_JQfCiKpW-28" target="S9fTLESq3XJ_JQfCiKpW-12" edge="1">
          <mxGeometry relative="1" as="geometry">
            <mxPoint x="-486.34000000000003" y="398.5" as="sourcePoint" />
            <mxPoint x="-227.00085059978198" y="14.5" as="targetPoint" />
          </mxGeometry>
        </mxCell>
        <mxCell id="S9fTLESq3XJ_JQfCiKpW-30" value="&lt;span style=&quot;background-color: initial;&quot;&gt;&lt;b&gt;&amp;lt;&amp;lt; Problem &amp;gt;&amp;gt;&lt;/b&gt;&lt;/span&gt;&lt;div&gt;&lt;div style=&quot;font-weight: bold; text-align: left;&quot;&gt;&lt;br&gt;&lt;/div&gt;&lt;div style=&quot;&quot;&gt;Data taking too long to render because of blob storage image retrieve time&lt;/div&gt;&lt;/div&gt;" style="shape=note;size=15;align=center;spacingLeft=0;html=1;whiteSpace=wrap;verticalAlign=top;strokeWidth=2;" parent="1" vertex="1">
          <mxGeometry x="-618" y="326" width="173" height="84" as="geometry" />
        </mxCell>
        <mxCell id="S9fTLESq3XJ_JQfCiKpW-31" style="rounded=0;orthogonalLoop=1;jettySize=auto;html=1;endArrow=none;endFill=0;strokeWidth=2;dashed=1;" parent="1" source="S9fTLESq3XJ_JQfCiKpW-30" target="S9fTLESq3XJ_JQfCiKpW-12" edge="1">
          <mxGeometry relative="1" as="geometry">
            <mxPoint x="-236.34000000000003" y="398.5" as="sourcePoint" />
            <mxPoint x="-116.26903553299508" y="220" as="targetPoint" />
          </mxGeometry>
        </mxCell>
        <mxCell id="S9fTLESq3XJ_JQfCiKpW-43" value="&lt;p style=&quot;margin:0px;margin-top:4px;text-align:center;&quot;&gt;&amp;lt;&amp;lt;requirement&amp;gt;&amp;gt;&lt;br&gt;&lt;b&gt;Cache frequent queries&lt;/b&gt;&lt;/p&gt;&lt;hr&gt;&lt;p&gt;&lt;/p&gt;&lt;p style=&quot;margin:0px;margin-left:8px;text-align:left;&quot;&gt;&lt;b&gt;Text&amp;nbsp;&lt;/b&gt;= &quot;The system should retrieve data from DB using cache queries&quot;&lt;br&gt;&lt;b&gt;Id&amp;nbsp; &amp;nbsp; &amp;nbsp;&lt;/b&gt;= &quot;1.0&quot;&lt;/p&gt;" style="shape=rect;overflow=fill;html=1;whiteSpace=wrap;align=center;" parent="1" vertex="1">
          <mxGeometry x="-333.0000000000001" y="344" width="200" height="100" as="geometry" />
        </mxCell>
        <mxCell id="S9fTLESq3XJ_JQfCiKpW-45" value="&lt;p style=&quot;margin:0px;margin-top:4px;text-align:center;&quot;&gt;&amp;lt;&amp;lt;requirement&amp;gt;&amp;gt;&lt;br&gt;&lt;b&gt;Apply pagination&lt;/b&gt;&lt;/p&gt;&lt;hr&gt;&lt;p&gt;&lt;/p&gt;&lt;p style=&quot;margin:0px;margin-left:8px;text-align:left;&quot;&gt;&lt;b&gt;Text&amp;nbsp;&lt;/b&gt;= &quot;The system should apply pagination&quot;&lt;br&gt;&lt;b&gt;Id&amp;nbsp; &amp;nbsp; &amp;nbsp;&lt;/b&gt;= &quot;1.0&quot;&lt;/p&gt;" style="shape=rect;overflow=fill;html=1;whiteSpace=wrap;align=center;" parent="1" vertex="1">
          <mxGeometry x="-122" y="344" width="200" height="110" as="geometry" />
        </mxCell>
        <mxCell id="S9fTLESq3XJ_JQfCiKpW-47" value="&lt;p style=&quot;margin:0px;margin-top:4px;text-align:center;&quot;&gt;&amp;lt;&amp;lt;requirement&amp;gt;&amp;gt;&lt;br&gt;&lt;b&gt;Asynchronous load of images&lt;/b&gt;&lt;/p&gt;&lt;hr&gt;&lt;p&gt;&lt;/p&gt;&lt;p style=&quot;margin:0px;margin-left:8px;text-align:left;&quot;&gt;&lt;b&gt;Text&amp;nbsp;&lt;/b&gt;= &quot;The system should asynchronously&amp;nbsp;load images&quot;&lt;br&gt;&lt;b&gt;Id&amp;nbsp; &amp;nbsp; &amp;nbsp;&lt;/b&gt;= &quot;1.0&quot;&lt;/p&gt;" style="shape=rect;overflow=fill;html=1;whiteSpace=wrap;align=center;" parent="1" vertex="1">
          <mxGeometry x="87.99999999999989" y="344" width="200" height="100" as="geometry" />
        </mxCell>
        <mxCell id="S9fTLESq3XJ_JQfCiKpW-48" value="&lt;p style=&quot;margin:0px;margin-top:4px;text-align:center;&quot;&gt;&amp;lt;&amp;lt;requirement&amp;gt;&amp;gt;&lt;br&gt;&lt;b style=&quot;font-size: 11px; background-color: rgb(255, 255, 255);&quot;&gt;Display default sample image until data arrives&lt;/b&gt;&lt;br&gt;&lt;/p&gt;&lt;hr&gt;&lt;p&gt;&lt;/p&gt;&lt;p style=&quot;margin:0px;margin-left:8px;text-align:left;&quot;&gt;&lt;b&gt;Text&amp;nbsp;&lt;/b&gt;= &quot;The system d&lt;span style=&quot;text-align: center; font-size: 11px; background-color: rgb(255, 255, 255);&quot;&gt;isplay default sample image until data arrives&lt;/span&gt;&lt;span style=&quot;background-color: initial;&quot;&gt;&quot;&lt;/span&gt;&lt;/p&gt;&lt;p style=&quot;margin:0px;margin-left:8px;text-align:left;&quot;&gt;&lt;b&gt;Id&amp;nbsp; &amp;nbsp; &amp;nbsp;&lt;/b&gt;= &quot;1.0&quot;&lt;/p&gt;" style="shape=rect;overflow=fill;html=1;whiteSpace=wrap;align=center;" parent="1" vertex="1">
          <mxGeometry x="299" y="344" width="200" height="120" as="geometry" />
        </mxCell>
        <mxCell id="S9fTLESq3XJ_JQfCiKpW-54" value="&lt;span style=&quot;background-color: initial;&quot;&gt;&lt;b&gt;&amp;lt;&amp;lt; Rationale &amp;gt;&amp;gt;&lt;/b&gt;&lt;/span&gt;&lt;div&gt;&lt;div style=&quot;font-weight: bold; text-align: left;&quot;&gt;&lt;br&gt;&lt;/div&gt;&lt;div style=&quot;&quot;&gt;Solves d&lt;span style=&quot;background-color: initial;&quot;&gt;ata taking too long to render because of DB query processing time&lt;/span&gt;&lt;/div&gt;&lt;/div&gt;" style="shape=note;size=15;align=center;spacingLeft=0;html=1;whiteSpace=wrap;verticalAlign=top;strokeWidth=2;" parent="1" vertex="1">
          <mxGeometry x="-319.5" y="514.75" width="173" height="86.25" as="geometry" />
        </mxCell>
        <mxCell id="S9fTLESq3XJ_JQfCiKpW-55" style="rounded=0;orthogonalLoop=1;jettySize=auto;html=1;endArrow=none;endFill=0;strokeWidth=2;dashed=1;" parent="1" source="S9fTLESq3XJ_JQfCiKpW-54" target="S9fTLESq3XJ_JQfCiKpW-43" edge="1">
          <mxGeometry relative="1" as="geometry">
            <mxPoint x="-94" y="699.75" as="sourcePoint" />
            <mxPoint x="-249" y="510.25" as="targetPoint" />
          </mxGeometry>
        </mxCell>
        <mxCell id="S9fTLESq3XJ_JQfCiKpW-57" value="&lt;span style=&quot;background-color: initial;&quot;&gt;&lt;b&gt;&amp;lt;&amp;lt; Rationale &amp;gt;&amp;gt;&lt;/b&gt;&lt;/span&gt;&lt;div&gt;&lt;div style=&quot;font-weight: bold; text-align: left;&quot;&gt;&lt;br&gt;&lt;/div&gt;&lt;div style=&quot;&quot;&gt;Solves d&lt;span style=&quot;background-color: initial;&quot;&gt;ata taking too long to render because of DB query processing time&lt;/span&gt;&lt;/div&gt;&lt;/div&gt;" style="shape=note;size=15;align=center;spacingLeft=0;html=1;whiteSpace=wrap;verticalAlign=top;strokeWidth=2;" parent="1" vertex="1">
          <mxGeometry x="-108.5" y="515" width="173" height="86.25" as="geometry" />
        </mxCell>
        <mxCell id="S9fTLESq3XJ_JQfCiKpW-58" style="rounded=0;orthogonalLoop=1;jettySize=auto;html=1;endArrow=none;endFill=0;strokeWidth=2;dashed=1;" parent="1" source="S9fTLESq3XJ_JQfCiKpW-57" target="S9fTLESq3XJ_JQfCiKpW-45" edge="1">
          <mxGeometry relative="1" as="geometry">
            <mxPoint x="89" y="689.75" as="sourcePoint" />
            <mxPoint x="-42" y="439" as="targetPoint" />
            <Array as="points" />
          </mxGeometry>
        </mxCell>
        <mxCell id="S9fTLESq3XJ_JQfCiKpW-62" value="&lt;span style=&quot;background-color: initial;&quot;&gt;&lt;b&gt;&amp;lt;&amp;lt; Rationale &amp;gt;&amp;gt;&lt;/b&gt;&lt;/span&gt;&lt;div&gt;&lt;div&gt;&lt;div style=&quot;font-weight: bold; text-align: left;&quot;&gt;&lt;br&gt;&lt;/div&gt;&lt;div&gt;Solves data taking too long to render because of blob storage image retrieve time&lt;/div&gt;&lt;/div&gt;&lt;/div&gt;" style="shape=note;size=15;align=center;spacingLeft=0;html=1;whiteSpace=wrap;verticalAlign=top;strokeWidth=2;" parent="1" vertex="1">
          <mxGeometry x="101.5" y="515" width="173" height="86" as="geometry" />
        </mxCell>
        <mxCell id="S9fTLESq3XJ_JQfCiKpW-64" value="&lt;span style=&quot;background-color: initial;&quot;&gt;&lt;b&gt;&amp;lt;&amp;lt; Rationale &amp;gt;&amp;gt;&lt;/b&gt;&lt;/span&gt;&lt;div&gt;&lt;div&gt;&lt;div style=&quot;font-weight: bold; text-align: left;&quot;&gt;&lt;br&gt;&lt;/div&gt;&lt;div&gt;Solves data taking too long to render because of blob storage image retrieve time&lt;/div&gt;&lt;/div&gt;&lt;/div&gt;" style="shape=note;size=15;align=center;spacingLeft=0;html=1;whiteSpace=wrap;verticalAlign=top;strokeWidth=2;" parent="1" vertex="1">
          <mxGeometry x="312.5" y="515" width="173" height="87" as="geometry" />
        </mxCell>
        <mxCell id="S9fTLESq3XJ_JQfCiKpW-65" style="rounded=0;orthogonalLoop=1;jettySize=auto;html=1;endArrow=none;endFill=0;strokeWidth=2;dashed=1;" parent="1" source="S9fTLESq3XJ_JQfCiKpW-64" target="S9fTLESq3XJ_JQfCiKpW-48" edge="1">
          <mxGeometry relative="1" as="geometry">
            <mxPoint x="83" y="641" as="sourcePoint" />
            <mxPoint x="299" y="441" as="targetPoint" />
          </mxGeometry>
        </mxCell>
        <mxCell id="eYWVPHqEk-aqPNjBR4Un-4" value="" style="endArrow=circlePlus;html=1;rounded=0;strokeWidth=2;endFill=0;entryX=0.5;entryY=1;entryDx=0;entryDy=0;exitX=0.5;exitY=0;exitDx=0;exitDy=0;edgeStyle=orthogonalEdgeStyle;" edge="1" parent="1" source="S9fTLESq3XJ_JQfCiKpW-2" target="S9fTLESq3XJ_JQfCiKpW-1">
          <mxGeometry width="50" height="50" relative="1" as="geometry">
            <mxPoint x="-373" y="144" as="sourcePoint" />
            <mxPoint x="97" y="5" as="targetPoint" />
          </mxGeometry>
        </mxCell>
        <mxCell id="eYWVPHqEk-aqPNjBR4Un-5" value="&amp;lt;&amp;lt; &lt;b&gt;Block &lt;/b&gt;&amp;gt;&amp;gt;&lt;div&gt;&lt;br&gt;&lt;b&gt;Doctor controller&lt;/b&gt;&lt;/div&gt;" style="shape=rect;html=1;whiteSpace=wrap;align=center;verticalAlign=top;fillColor=#FFF2CC;" vertex="1" parent="1">
          <mxGeometry x="-55" y="-59" width="120" height="60" as="geometry" />
        </mxCell>
        <mxCell id="eYWVPHqEk-aqPNjBR4Un-6" value="&lt;font style=&quot;font-size: 12px;&quot;&gt;&lt;b&gt;&amp;lt;&amp;lt; Satisfy &amp;gt;&amp;gt;&lt;/b&gt;&lt;/font&gt;" style="edgeStyle=none;html=1;endArrow=open;endSize=12;dashed=1;verticalAlign=bottom;rounded=0;strokeWidth=2;" edge="1" parent="1" source="eYWVPHqEk-aqPNjBR4Un-5" target="S9fTLESq3XJ_JQfCiKpW-1">
          <mxGeometry width="160" relative="1" as="geometry">
            <mxPoint x="-167" y="131.9999999999999" as="sourcePoint" />
            <mxPoint x="-7" y="131.9999999999999" as="targetPoint" />
          </mxGeometry>
        </mxCell>
        <mxCell id="eYWVPHqEk-aqPNjBR4Un-8" value="&lt;font style=&quot;font-size: 12px;&quot;&gt;&lt;b&gt;&amp;lt;&amp;lt; Satisfy &amp;gt;&amp;gt;&lt;/b&gt;&lt;/font&gt;" style="edgeStyle=none;html=1;endArrow=open;endSize=12;dashed=1;verticalAlign=bottom;rounded=0;strokeWidth=2;" edge="1" source="eYWVPHqEk-aqPNjBR4Un-35" parent="1" target="S9fTLESq3XJ_JQfCiKpW-2">
          <mxGeometry x="-0.1061" y="7" width="160" relative="1" as="geometry">
            <mxPoint x="-1341" y="205" as="sourcePoint" />
            <mxPoint x="-1249" y="215" as="targetPoint" />
            <mxPoint as="offset" />
          </mxGeometry>
        </mxCell>
        <mxCell id="eYWVPHqEk-aqPNjBR4Un-9" value="&amp;lt;&amp;lt; &lt;b&gt;Actor&amp;nbsp;&lt;/b&gt;&amp;gt;&amp;gt;&lt;div&gt;&lt;br&gt;&lt;b&gt;Patient&lt;/b&gt;&lt;/div&gt;" style="shape=rect;html=1;whiteSpace=wrap;align=center;verticalAlign=top;fillColor=#FFF2CC;" vertex="1" parent="1">
          <mxGeometry x="-1169" y="330" width="120" height="60" as="geometry" />
        </mxCell>
        <mxCell id="eYWVPHqEk-aqPNjBR4Un-10" value="&lt;font style=&quot;font-size: 12px;&quot;&gt;&lt;b&gt;&amp;lt;&amp;lt; Satisfy &amp;gt;&amp;gt;&lt;/b&gt;&lt;/font&gt;" style="edgeStyle=none;html=1;endArrow=open;endSize=12;dashed=1;verticalAlign=bottom;rounded=0;strokeWidth=2;" edge="1" parent="1" source="eYWVPHqEk-aqPNjBR4Un-9" target="S9fTLESq3XJ_JQfCiKpW-2">
          <mxGeometry x="-0.3959" width="160" relative="1" as="geometry">
            <mxPoint x="-576" y="321.9999999999999" as="sourcePoint" />
            <mxPoint x="-416" y="321.9999999999999" as="targetPoint" />
            <mxPoint as="offset" />
          </mxGeometry>
        </mxCell>
        <mxCell id="eYWVPHqEk-aqPNjBR4Un-11" value="" style="endArrow=circlePlus;html=1;rounded=0;strokeWidth=2;endFill=0;entryX=0.5;entryY=1;entryDx=0;entryDy=0;exitX=0.5;exitY=0;exitDx=0;exitDy=0;edgeStyle=orthogonalEdgeStyle;" edge="1" parent="1" source="S9fTLESq3XJ_JQfCiKpW-7" target="S9fTLESq3XJ_JQfCiKpW-1">
          <mxGeometry width="50" height="50" relative="1" as="geometry">
            <mxPoint x="-770" y="170" as="sourcePoint" />
            <mxPoint x="350" y="31" as="targetPoint" />
          </mxGeometry>
        </mxCell>
        <mxCell id="eYWVPHqEk-aqPNjBR4Un-13" value="" style="endArrow=circlePlus;html=1;rounded=0;strokeWidth=2;endFill=0;entryX=0.5;entryY=1;entryDx=0;entryDy=0;exitX=0.5;exitY=0;exitDx=0;exitDy=0;edgeStyle=orthogonalEdgeStyle;" edge="1" parent="1" source="S9fTLESq3XJ_JQfCiKpW-12" target="S9fTLESq3XJ_JQfCiKpW-1">
          <mxGeometry width="50" height="50" relative="1" as="geometry">
            <mxPoint x="-550" y="170" as="sourcePoint" />
            <mxPoint x="-246" y="41" as="targetPoint" />
          </mxGeometry>
        </mxCell>
        <mxCell id="eYWVPHqEk-aqPNjBR4Un-16" value="&amp;lt;&amp;lt; &lt;b&gt;Block &lt;/b&gt;&amp;gt;&amp;gt;&lt;div&gt;&lt;br&gt;&lt;b&gt;Interface Controller&lt;/b&gt;&lt;/div&gt;" style="shape=rect;html=1;whiteSpace=wrap;align=center;verticalAlign=top;fillColor=#FFF2CC;" vertex="1" parent="1">
          <mxGeometry x="-422" y="136" width="120" height="60" as="geometry" />
        </mxCell>
        <mxCell id="eYWVPHqEk-aqPNjBR4Un-17" value="&lt;font style=&quot;font-size: 12px;&quot;&gt;&lt;b&gt;&amp;lt;&amp;lt; Satisfy &amp;gt;&amp;gt;&lt;/b&gt;&lt;/font&gt;" style="edgeStyle=none;html=1;endArrow=open;endSize=12;dashed=1;verticalAlign=bottom;rounded=0;strokeWidth=2;" edge="1" parent="1" source="eYWVPHqEk-aqPNjBR4Un-16" target="S9fTLESq3XJ_JQfCiKpW-12">
          <mxGeometry width="160" relative="1" as="geometry">
            <mxPoint x="-460" y="292.9999999999999" as="sourcePoint" />
            <mxPoint x="-300" y="292.9999999999999" as="targetPoint" />
          </mxGeometry>
        </mxCell>
        <mxCell id="eYWVPHqEk-aqPNjBR4Un-19" value="&lt;font style=&quot;font-size: 12px;&quot;&gt;&lt;b&gt;&amp;lt;&amp;lt; Satisfy &amp;gt;&amp;gt;&lt;/b&gt;&lt;/font&gt;" style="edgeStyle=none;html=1;endArrow=open;endSize=12;dashed=1;verticalAlign=bottom;rounded=0;strokeWidth=2;" edge="1" parent="1" source="S9fTLESq3XJ_JQfCiKpW-8" target="S9fTLESq3XJ_JQfCiKpW-20">
          <mxGeometry x="-0.146" y="-4" width="160" relative="1" as="geometry">
            <mxPoint x="1171.39" y="555" as="sourcePoint" />
            <mxPoint x="1014.3899999999999" y="405" as="targetPoint" />
            <mxPoint as="offset" />
          </mxGeometry>
        </mxCell>
        <mxCell id="eYWVPHqEk-aqPNjBR4Un-21" value="" style="endArrow=circlePlus;html=1;rounded=0;strokeWidth=2;endFill=0;entryX=0.5;entryY=1;entryDx=0;entryDy=0;exitX=0.5;exitY=0;exitDx=0;exitDy=0;edgeStyle=orthogonalEdgeStyle;" edge="1" parent="1" source="S9fTLESq3XJ_JQfCiKpW-43" target="eYWVPHqEk-aqPNjBR4Un-32">
          <mxGeometry width="50" height="50" relative="1" as="geometry">
            <mxPoint x="-736" y="403" as="sourcePoint" />
            <mxPoint x="-357" y="269" as="targetPoint" />
          </mxGeometry>
        </mxCell>
        <mxCell id="eYWVPHqEk-aqPNjBR4Un-22" value="" style="endArrow=circlePlus;html=1;rounded=0;strokeWidth=2;endFill=0;entryX=0.5;entryY=1;entryDx=0;entryDy=0;exitX=0.5;exitY=0;exitDx=0;exitDy=0;edgeStyle=orthogonalEdgeStyle;" edge="1" parent="1" source="S9fTLESq3XJ_JQfCiKpW-45" target="eYWVPHqEk-aqPNjBR4Un-32">
          <mxGeometry width="50" height="50" relative="1" as="geometry">
            <mxPoint x="-75" y="387" as="sourcePoint" />
            <mxPoint x="-357" y="269" as="targetPoint" />
          </mxGeometry>
        </mxCell>
        <mxCell id="eYWVPHqEk-aqPNjBR4Un-23" value="" style="endArrow=circlePlus;html=1;rounded=0;strokeWidth=2;endFill=0;entryX=0.5;entryY=1;entryDx=0;entryDy=0;exitX=0.5;exitY=0;exitDx=0;exitDy=0;edgeStyle=orthogonalEdgeStyle;" edge="1" parent="1" source="S9fTLESq3XJ_JQfCiKpW-47" target="eYWVPHqEk-aqPNjBR4Un-32">
          <mxGeometry width="50" height="50" relative="1" as="geometry">
            <mxPoint x="-12" y="403" as="sourcePoint" />
            <mxPoint x="-357" y="269" as="targetPoint" />
          </mxGeometry>
        </mxCell>
        <mxCell id="eYWVPHqEk-aqPNjBR4Un-24" value="" style="endArrow=circlePlus;html=1;rounded=0;strokeWidth=2;endFill=0;entryX=0.5;entryY=1;entryDx=0;entryDy=0;exitX=0.5;exitY=0;exitDx=0;exitDy=0;edgeStyle=orthogonalEdgeStyle;" edge="1" parent="1" source="S9fTLESq3XJ_JQfCiKpW-48" target="eYWVPHqEk-aqPNjBR4Un-32">
          <mxGeometry width="50" height="50" relative="1" as="geometry">
            <mxPoint x="198" y="403" as="sourcePoint" />
            <mxPoint x="-357" y="269" as="targetPoint" />
          </mxGeometry>
        </mxCell>
        <mxCell id="eYWVPHqEk-aqPNjBR4Un-25" value="" style="endArrow=circlePlus;html=1;rounded=0;strokeWidth=2;endFill=0;entryX=0.5;entryY=1;entryDx=0;entryDy=0;exitX=0.5;exitY=0;exitDx=0;exitDy=0;edgeStyle=orthogonalEdgeStyle;" edge="1" parent="1" source="S9fTLESq3XJ_JQfCiKpW-14" target="S9fTLESq3XJ_JQfCiKpW-1">
          <mxGeometry width="50" height="50" relative="1" as="geometry">
            <mxPoint x="510" y="165" as="sourcePoint" />
            <mxPoint x="-246" y="41" as="targetPoint" />
          </mxGeometry>
        </mxCell>
        <mxCell id="eYWVPHqEk-aqPNjBR4Un-27" style="rounded=0;orthogonalLoop=1;jettySize=auto;html=1;endArrow=none;endFill=0;strokeWidth=2;dashed=1;" edge="1" parent="1" source="S9fTLESq3XJ_JQfCiKpW-47" target="S9fTLESq3XJ_JQfCiKpW-62">
          <mxGeometry relative="1" as="geometry">
            <mxPoint x="164" y="379" as="sourcePoint" />
            <mxPoint x="164" y="308" as="targetPoint" />
          </mxGeometry>
        </mxCell>
        <mxCell id="eYWVPHqEk-aqPNjBR4Un-28" value="" style="endArrow=circlePlus;html=1;rounded=0;strokeWidth=2;endFill=0;entryX=0.5;entryY=1;entryDx=0;entryDy=0;exitX=0.5;exitY=0;exitDx=0;exitDy=0;edgeStyle=orthogonalEdgeStyle;" edge="1" parent="1" source="S9fTLESq3XJ_JQfCiKpW-16" target="S9fTLESq3XJ_JQfCiKpW-14">
          <mxGeometry width="50" height="50" relative="1" as="geometry">
            <mxPoint x="871" y="165" as="sourcePoint" />
            <mxPoint x="-430" y="41" as="targetPoint" />
          </mxGeometry>
        </mxCell>
        <mxCell id="eYWVPHqEk-aqPNjBR4Un-29" value="" style="endArrow=circlePlus;html=1;rounded=0;strokeWidth=2;endFill=0;entryX=0.5;entryY=1;entryDx=0;entryDy=0;exitX=0.5;exitY=0;exitDx=0;exitDy=0;edgeStyle=orthogonalEdgeStyle;" edge="1" parent="1" source="S9fTLESq3XJ_JQfCiKpW-16" target="S9fTLESq3XJ_JQfCiKpW-14">
          <mxGeometry width="50" height="50" relative="1" as="geometry">
            <mxPoint x="658" y="350" as="sourcePoint" />
            <mxPoint x="871" y="265" as="targetPoint" />
          </mxGeometry>
        </mxCell>
        <mxCell id="eYWVPHqEk-aqPNjBR4Un-30" value="" style="endArrow=circlePlus;html=1;rounded=0;strokeWidth=2;endFill=0;entryX=0.5;entryY=1;entryDx=0;entryDy=0;exitX=0.5;exitY=0;exitDx=0;exitDy=0;edgeStyle=orthogonalEdgeStyle;" edge="1" parent="1" source="S9fTLESq3XJ_JQfCiKpW-17" target="S9fTLESq3XJ_JQfCiKpW-14">
          <mxGeometry width="50" height="50" relative="1" as="geometry">
            <mxPoint x="658" y="350" as="sourcePoint" />
            <mxPoint x="871" y="265" as="targetPoint" />
          </mxGeometry>
        </mxCell>
        <mxCell id="eYWVPHqEk-aqPNjBR4Un-31" value="" style="endArrow=circlePlus;html=1;rounded=0;strokeWidth=2;endFill=0;entryX=0.5;entryY=1;entryDx=0;entryDy=0;exitX=0.5;exitY=0;exitDx=0;exitDy=0;edgeStyle=orthogonalEdgeStyle;" edge="1" parent="1" source="S9fTLESq3XJ_JQfCiKpW-20" target="S9fTLESq3XJ_JQfCiKpW-14">
          <mxGeometry width="50" height="50" relative="1" as="geometry">
            <mxPoint x="874" y="350" as="sourcePoint" />
            <mxPoint x="871" y="265" as="targetPoint" />
          </mxGeometry>
        </mxCell>
        <mxCell id="eYWVPHqEk-aqPNjBR4Un-32" value="&lt;p style=&quot;margin:0px;margin-top:4px;text-align:center;&quot;&gt;&amp;lt;&amp;lt;requirement&amp;gt;&amp;gt;&lt;br&gt;&lt;/p&gt;&lt;p style=&quot;margin:0px;margin-top:4px;text-align:center;&quot;&gt;&lt;b&gt;Handle long latency&lt;/b&gt;&lt;/p&gt;&lt;p&gt;&lt;/p&gt;&lt;p style=&quot;margin:0px;margin-left:8px;text-align:left;&quot;&gt;&lt;b&gt;Text&amp;nbsp;&lt;/b&gt;= &quot;The system decrease the time to load doctors information&quot;&lt;br&gt;&lt;b&gt;Id&amp;nbsp; &amp;nbsp; &amp;nbsp;&lt;/b&gt;= &quot;1.0&quot;&lt;/p&gt;" style="shape=rect;overflow=fill;html=1;whiteSpace=wrap;align=center;" vertex="1" parent="1">
          <mxGeometry x="-13.000000000000114" y="155" width="200" height="100" as="geometry" />
        </mxCell>
        <mxCell id="eYWVPHqEk-aqPNjBR4Un-34" value="" style="endArrow=circlePlus;html=1;rounded=0;strokeWidth=2;endFill=0;entryX=0.5;entryY=1;entryDx=0;entryDy=0;exitX=0.5;exitY=0;exitDx=0;exitDy=0;edgeStyle=orthogonalEdgeStyle;" edge="1" parent="1" source="eYWVPHqEk-aqPNjBR4Un-32" target="S9fTLESq3XJ_JQfCiKpW-1">
          <mxGeometry width="50" height="50" relative="1" as="geometry">
            <mxPoint x="962" y="165" as="sourcePoint" />
            <mxPoint x="-246" y="41" as="targetPoint" />
          </mxGeometry>
        </mxCell>
        <mxCell id="eYWVPHqEk-aqPNjBR4Un-35" value="&amp;lt;&amp;lt; &lt;b&gt;Block &lt;/b&gt;&amp;gt;&amp;gt;&lt;div&gt;&lt;br&gt;&lt;b&gt;Doctor Interface&lt;/b&gt;&lt;/div&gt;" style="shape=rect;html=1;whiteSpace=wrap;align=center;verticalAlign=top;fillColor=#FFF2CC;" vertex="1" parent="1">
          <mxGeometry x="-1469" y="175" width="120" height="60" as="geometry" />
        </mxCell>
        <mxCell id="eYWVPHqEk-aqPNjBR4Un-36" value="&amp;lt;&amp;lt; &lt;b&gt;Block &lt;/b&gt;&amp;gt;&amp;gt;&lt;div&gt;&lt;br&gt;&lt;b&gt;Doctor&lt;/b&gt;&lt;/div&gt;" style="shape=rect;html=1;whiteSpace=wrap;align=center;verticalAlign=top;fillColor=#FFF2CC;" vertex="1" parent="1">
          <mxGeometry x="-422" y="245" width="120" height="60" as="geometry" />
        </mxCell>
        <mxCell id="eYWVPHqEk-aqPNjBR4Un-37" value="&lt;font style=&quot;font-size: 12px;&quot;&gt;&lt;b&gt;&amp;lt;&amp;lt; Satisfy &amp;gt;&amp;gt;&lt;/b&gt;&lt;/font&gt;" style="edgeStyle=none;html=1;endArrow=open;endSize=12;dashed=1;verticalAlign=bottom;rounded=0;strokeWidth=2;" edge="1" parent="1" source="eYWVPHqEk-aqPNjBR4Un-36" target="S9fTLESq3XJ_JQfCiKpW-12">
          <mxGeometry width="160" relative="1" as="geometry">
            <mxPoint x="-408" y="215" as="sourcePoint" />
            <mxPoint x="-535" y="215" as="targetPoint" />
          </mxGeometry>
        </mxCell>
      </root>
    </mxGraphModel>
  </diagram>
</mxfile>
